<svg xmlns="http://www.w3.org/2000/svg" viewBox="0 0 400 300" width="400" height="300">
    <rect width="400" height="300" fill="#f7f5f0"/>
    <line x1="20" y1="40" x2="380" y2="40" stroke="#111" stroke-width="3"/>
    <line x1="20" y1="45" x2="380" y2="45" stroke="#111" stroke-width="1"/>
    <text x="200" y="75" font-family="Georgia, serif" font-size="22" font-weight="900" fill="#111" text-anchor="middle">The Daily Signal</text>
    <text x="200" y="90" font-family="Georgia, serif" font-size="9" font-style="italic" fill="#6b6b6b" text-anchor="middle">Same fakty, bez lania wody</text>
    <line x1="20" y1="105" x2="380" y2="105" stroke="#d8d6d2" stroke-width="1"/>
    <line x1="20" y1="110" x2="380" y2="110" stroke="#111" stroke-width="1"/>
    <text x="60" y="125" font-family="sans-serif" font-size="8" fill="#111" letter-spacing="1">SEO</text>
    <text x="100" y="125" font-family="sans-serif" font-size="8" fill="#111" letter-spacing="1">GEO</text>
    <text x="140" y="125" font-family="sans-serif" font-size="8" fill="#111" letter-spacing="1">ADS</text>
    <text x="180" y="125" font-family="sans-serif" font-size="8" fill="#111" letter-spacing="1">AI</text>
    <rect x="20" y="140" width="170" height="100" fill="#111"/>
    <text x="200" y="160" font-family="Georgia, serif" font-size="14" font-weight="700" fill="#111">Tytuł artykułu</text>
    <text x="200" y="175" font-family="Georgia, serif" font-size="9" fill="#6b6b6b">krótki opis...</text>
    <line x1="200" y1="185" x2="380" y2="185" stroke="#d8d6d2"/>
    <rect x="20" y="250" width="80" height="40" fill="#fff" stroke="#111"/>
    <rect x="105" y="250" width="80" height="40" fill="#fff" stroke="#111"/>
    <rect x="190" y="250" width="80" height="40" fill="#fff" stroke="#111"/>
    <rect x="275" y="250" width="80" height="40" fill="#fff" stroke="#111"/>
</svg>
