<svg xmlns="http://www.w3.org/2000/svg" viewBox="0 0 400 300" width="400" height="300">
    <rect width="400" height="300" fill="#fafbfc"/>
    <rect x="0" y="0" width="400" height="20" fill="#e63946"/>
    <text x="200" y="14" font-family="Inter, sans-serif" font-size="9" fill="#fff" text-anchor="middle" font-weight="500">📖 Same fakty, bez lania wody</text>
    <rect x="0" y="20" width="400" height="60" fill="#fff"/>
    <text x="30" y="55" font-family="Inter, sans-serif" font-size="22" font-weight="800" fill="#1a1a2e">The Daily Signal</text>
    <text x="190" y="55" font-family="Inter, sans-serif" font-size="10" fill="#6b6f7d">tagline tutaj</text>
    <rect x="280" y="40" width="35" height="22" rx="11" fill="#fde8ea"/>
    <text x="297" y="55" font-family="Inter, sans-serif" font-size="9" fill="#c41e2e" text-anchor="middle" font-weight="500">SEO</text>
    <rect x="320" y="40" width="35" height="22" rx="11" fill="#fde8ea"/>
    <text x="338" y="55" font-family="Inter, sans-serif" font-size="9" fill="#c41e2e" text-anchor="middle" font-weight="500">AI</text>

    <!-- Lead article card -->
    <rect x="20" y="95" width="360" height="120" rx="12" fill="#fff" stroke="#e4e6eb"/>
    <rect x="20" y="95" width="170" height="120" rx="12 0 0 12" fill="#e4e6eb"/>
    <rect x="200" y="115" width="45" height="14" rx="7" fill="#fde8ea"/>
    <text x="222" y="125" font-family="Inter, sans-serif" font-size="7" fill="#c41e2e" text-anchor="middle" font-weight="700">GEO</text>
    <text x="200" y="148" font-family="Inter, sans-serif" font-size="13" font-weight="800" fill="#1a1a2e">Nowoczesny tytuł</text>
    <text x="200" y="165" font-family="Inter, sans-serif" font-size="9" fill="#6b6f7d">Krótki opis artykułu poniżej</text>
    <text x="200" y="178" font-family="Inter, sans-serif" font-size="9" fill="#6b6f7d">tytułu w nowoczesnym stylu</text>

    <!-- Cards grid -->
    <rect x="20" y="230" width="110" height="60" rx="12" fill="#fff" stroke="#e4e6eb"/>
    <rect x="20" y="230" width="110" height="32" rx="12 12 0 0" fill="#e4e6eb"/>
    <rect x="145" y="230" width="110" height="60" rx="12" fill="#fff" stroke="#e4e6eb"/>
    <rect x="145" y="230" width="110" height="32" rx="12 12 0 0" fill="#e4e6eb"/>
    <rect x="270" y="230" width="110" height="60" rx="12" fill="#fff" stroke="#e4e6eb"/>
    <rect x="270" y="230" width="110" height="32" rx="12 12 0 0" fill="#e4e6eb"/>
</svg>
