<svg xmlns="http://www.w3.org/2000/svg" viewBox="0 0 400 300" width="400" height="300">
    <rect width="400" height="300" fill="#f4e8d0"/>
    <rect x="0" y="0" width="400" height="22" fill="#3a2818"/>
    <text x="200" y="15" font-family="sans-serif" font-size="9" fill="#faf2dd" text-anchor="middle" letter-spacing="2">RETROSPEKTYWA · KULTURA</text>
    <line x1="0" y1="32" x2="400" y2="32" stroke="#3a2818" stroke-width="3"/>
    <line x1="0" y1="38" x2="400" y2="38" stroke="#3a2818"/>
    <text x="200" y="78" font-family="Georgia, serif" font-size="32" fill="#3a2818" text-anchor="middle" font-weight="400">Tribune</text>
    <text x="200" y="93" font-family="serif" font-size="10" font-style="italic" fill="#7a604a" text-anchor="middle">Pismo o sztuce i historii</text>
    <line x1="0" y1="105" x2="400" y2="105" stroke="#c9b890"/>
    <text x="100" y="122" font-family="serif" font-size="10" font-style="italic" fill="#3a2818">Historia</text>
    <text x="170" y="122" font-family="serif" font-size="10" font-style="italic" fill="#3a2818">Sztuka</text>
    <text x="230" y="122" font-family="serif" font-size="10" font-style="italic" fill="#3a2818">Książki</text>
    <text x="300" y="122" font-family="serif" font-size="10" font-style="italic" fill="#3a2818">Felietony</text>
    <line x1="0" y1="132" x2="400" y2="132" stroke="#3a2818"/>

    <rect x="20" y="155" width="160" height="100" fill="#8b5a2b" opacity="0.45"/>
    <rect x="16" y="151" width="168" height="108" fill="none" stroke="#c9b890" stroke-width="1"/>
    <text x="200" y="175" font-family="Georgia, serif" font-size="15" fill="#3a2818">❦ Vintage</text>
    <text x="200" y="195" font-family="serif" font-size="9" font-style="italic" fill="#7a604a">Sepia, ciepłe brązy</text>
    <rect x="200" y="205" width="130" height="50" fill="#faf2dd" stroke="#c9b890"/>
    <text x="265" y="225" font-family="Georgia, serif" font-size="11" font-style="italic" fill="#3a2818" text-anchor="middle">"Cytat"</text>
    <text x="265" y="240" font-family="serif" font-size="8" fill="#7a604a" text-anchor="middle">— Autor</text>

    <rect x="0" y="270" width="400" height="30" fill="#faf2dd"/>
    <line x1="0" y1="270" x2="400" y2="270" stroke="#3a2818" stroke-width="3"/>
    <line x1="0" y1="276" x2="400" y2="276" stroke="#3a2818"/>
    <text x="200" y="291" font-family="serif" font-size="9" font-style="italic" fill="#7a604a" text-anchor="middle">est. MMXXVI</text>
</svg>
